<?xml version="1.0" encoding="UTF-8"?>
<svg width="1200pt" height="1200pt" version="1.1" viewBox="0 0 1200 1200" xmlns="http://www.w3.org/2000/svg">
 <g>
  <path d="m346.19 501.71c-7.0625 9.3398-13.078 19.547-17.781 30.523-17.164 40.047-42.715 69.156-74.523 85.879v88.309c22.281-14.969 40.445-37.875 53.316-67.891 9.1602-21.375 22.531-40.305 38.992-55.934z"/>
  <path d="m369.27 911.54h92.309v92.309h-92.309z"/>
  <path d="m346.19 617.1c-7.0625 9.3398-13.078 19.547-17.781 30.523-17.164 40.047-42.715 69.156-74.523 85.879l-0.003907 108.8h92.309z"/>
  <path d="m369.27 865.38h92.309v23.078h-92.309z"/>
  <path d="m253.88 865.38h92.309v23.078h-92.309z"/>
  <path d="m484.65 842.31h103.81v-330.38l-103.81 33.031zm58.199-207.11c4.5039-4.5078 11.812-4.5078 16.316 0 4.5078 4.5039 4.5078 11.812 0 16.316-22.547 22.551-22.547 59.039 0 81.59 7.3125 7.3047 2.0078 19.695-8.1562 19.695-2.9531 0-5.9062-1.125-8.1562-3.3789-31.492-31.488-31.492-82.734-0.003907-114.22z"/>
  <path d="m484.65 520.75 103.81-33.027v-91.168l-103.81 33.027z"/>
  <path d="m484.65 865.38h103.81v23.078h-103.81z"/>
  <path d="m369.27 477.53v86.68c12.867-8.5117 26.957-15.324 41.977-20.102l50.332-16.016v-91.172l-43.34 13.793c-18.125 5.7617-34.688 14.949-48.969 26.816z"/>
  <path d="m484.65 911.54h103.81v92.309h-103.81z"/>
  <path d="m369.27 592.91v249.39h92.309l-0.003906-290-43.34 13.793c-18.121 5.7656-34.684 14.949-48.965 26.816z"/>
  <path d="m230.8 743.12c-14.43 4.543-29.863 6.875-46.152 6.875h-0.10938v92.309h46.262z"/>
  <path d="m242.07 175.7c3.2383-15.258 10.66-28.992 20.996-39.938-6.8555-12.254-19.871-20.117-34.273-20.117-31.559 0-50.301 35.539-32.297 61.625 13.855-7.2773 30.621-8.1523 45.574-1.5703z"/>
  <path d="m256.23 207.59c-4.5586 1.8398-9.7852 0.60547-13.023-3.1016-5.6484-6.4609-13.77-10.164-22.281-10.164-16.332 0-29.617 13.289-29.617 29.621 0 16.332 13.285 29.617 29.617 29.617h195.49c16.332 0 29.617-13.285 29.617-29.617 0-22.734-24.762-37.117-44.527-25.547-7.3672 4.3242-16.797-0.625-17.348-9.2227-2.0156-31.727-28.523-56.578-60.34-56.578-34.16 0-62.176 28.574-60.398 63.707 0.25391 4.9062-2.6328 9.4375-7.1914 11.285zm43.738 0.10547h57.691c6.375 0 11.539 5.1641 11.539 11.539s-5.1641 11.539-11.539 11.539h-57.691c-6.375 0-11.539-5.1641-11.539-11.539s5.1641-11.539 11.539-11.539z"/>
  <path d="m588.43 207.69c-12.727 0-23.078 10.352-23.078 23.078 0 12.727 10.352 23.078 23.078 23.078 12.727 0 23.078-10.352 23.078-23.078-0.003906-12.727-10.355-23.078-23.078-23.078z"/>
  <path d="m992.27 219.23c31.812 0 57.691-25.879 57.691-57.691s-25.879-57.691-57.691-57.691-57.691 25.879-57.691 57.691 25.883 57.691 57.691 57.691z"/>
  <path d="m121.12 519.23c28.629 0 51.922-23.293 51.922-51.922s-23.293-51.922-51.922-51.922c-28.629 0-51.922 23.293-51.922 51.922s23.293 51.922 51.922 51.922zm-40.387-51.922c0-22.266 18.117-40.383 40.383-40.383s40.383 18.117 40.383 40.383c0 6.375-5.1641 11.539-11.539 11.539s-11.539-5.1641-11.539-11.539c0-9.543-7.7617-17.309-17.309-17.309-9.543 0-17.309 7.7617-17.309 17.309 0 6.375-5.1641 11.539-11.539 11.539-6.3633 0-11.531-5.168-11.531-11.539z"/>
  <path d="m184.54 865.38h46.262v23.078h-46.262z"/>
  <path d="m104.25 565.14h33.66v-34.363c-12.258 0.92969-21.16 0.94531-33.66-0.015625z"/>
  <path d="m1062 565.14h33.66v-34.363c-12.258 0.92969-21.16 0.94531-33.66-0.015625z"/>
  <path d="m230.8 718.49v-90.754c-14.43 4.543-29.863 6.875-46.152 6.875h-0.10938v92.309c3.2695-0.29297 22.742 0.75 46.262-8.4297z"/>
  <path d="m184.54 911.54h46.262v92.309h-46.262z"/>
  <path d="m253.88 911.54h92.309v92.309h-92.309z"/>
  <path d="m611.61 911.54h103.81v92.309h-103.81z"/>
  <path d="m969.27 865.38h46.191v23.078h-46.191z"/>
  <path d="m1015.5 634.62c-3.2227-0.23828-22.414 0.60937-46.191-6.875v90.754c23.438 9.1484 42.773 8.125 46.191 8.4297z"/>
  <path d="m1015.5 750c-3.2227-0.23828-22.414 0.60938-46.191-6.875v99.184h46.191z"/>
  <path d="m611.61 865.38h103.81v23.078h-103.81z"/>
  <path d="m969.27 911.54h46.191v92.309h-46.191z"/>
  <path d="m892.88 638.53c12.863 30.02 31.027 52.926 53.316 67.891v-88.309c-31.812-16.723-57.359-45.832-74.523-85.879-4.7031-10.977-10.723-21.184-17.781-30.523v80.883c16.457 15.637 29.824 34.562 38.988 55.938z"/>
  <path d="m1027 467.31c0 28.629 23.293 51.922 51.922 51.922s51.922-23.293 51.922-51.922-23.293-51.922-51.922-51.922c-28.629-0.003907-51.922 23.293-51.922 51.922zm92.309 0c0 6.375-5.1641 11.539-11.539 11.539s-11.539-5.1641-11.539-11.539c0-9.543-7.7617-17.309-17.309-17.309-9.543 0-17.309 7.7617-17.309 17.309 0 6.375-5.1641 11.539-11.539 11.539s-11.539-5.1641-11.539-11.539c0-22.266 18.117-40.383 40.383-40.383 22.273-0.003906 40.391 18.113 40.391 40.383z"/>
  <path d="m946.19 733.5c-31.812-16.723-57.363-45.832-74.523-85.879-4.7031-10.977-10.723-21.184-17.781-30.523l-0.003906 225.21h92.309z"/>
  <path d="m611.61 487.72 103.81 33.027v-91.168l-103.81-33.027z"/>
  <path d="m738.5 865.38h92.309v23.078h-92.309z"/>
  <path d="m738.5 911.54h92.309v92.309h-92.309z"/>
  <path d="m853.88 865.38h92.309v23.078h-92.309z"/>
  <path d="m611.61 842.31h103.81v-297.35l-103.81-33.031zm29.148-190.8c-4.5078-4.5039-4.5078-11.812 0-16.316 4.5039-4.5078 11.812-4.5078 16.316 0 31.492 31.488 31.492 82.73 0 114.22-2.2539 2.2539-5.207 3.3789-8.1562 3.3789-10.168 0-15.465-12.395-8.1562-19.695 22.547-22.551 22.547-59.035-0.003907-81.59z"/>
  <path d="m830.8 564.21v-86.676c-14.285-11.867-30.848-21.055-48.969-26.816l-43.34-13.793v91.172l50.336 16.016c15.016 4.7734 29.102 11.586 41.973 20.098z"/>
  <path d="m853.88 911.54h92.309v92.309h-92.309z"/>
  <path d="m830.8 592.91c-14.285-11.867-30.848-21.055-48.969-26.816l-43.34-13.793v290h92.309z"/>
  <path d="m138.43 213.46c0 9.5586-7.75 17.309-17.309 17.309-9.5586 0-17.309-7.75-17.309-17.309 0-9.5586 7.75-17.309 17.309-17.309 9.5586 0 17.309 7.75 17.309 17.309"/>
  <path d="m299.96 375c0 9.5586-7.75 17.309-17.309 17.309s-17.309-7.75-17.309-17.309 7.75-17.309 17.309-17.309 17.309 7.75 17.309 17.309"/>
  <path d="m738.43 132.69c0 9.5586-7.75 17.309-17.309 17.309-9.5586 0-17.309-7.75-17.309-17.309s7.75-17.309 17.309-17.309c9.5586 0 17.309 7.75 17.309 17.309"/>
  <path d="m1096.1 282.69c0 9.5586-7.75 17.309-17.309 17.309s-17.309-7.75-17.309-17.309 7.75-17.309 17.309-17.309 17.309 7.75 17.309 17.309"/>
  <path d="m911.5 340.38c0 9.5625-7.7461 17.309-17.305 17.309-9.5586 0-17.309-7.7461-17.309-17.309 0-9.5586 7.75-17.305 17.309-17.305 9.5586 0 17.305 7.7461 17.305 17.305"/>
  <path d="m519.2 132.69c0 9.5586-7.75 17.309-17.309 17.309-9.5586 0-17.309-7.75-17.309-17.309s7.75-17.309 17.309-17.309c9.5586 0 17.309 7.75 17.309 17.309"/>
  <path d="m403.81 1073.1h-242.34v-496.15h-80.699v496.15h-11.539c-6.375 0-11.539 5.1641-11.539 11.539s5.1641 11.539 11.539 11.539h334.58c6.375 0 11.539-5.1641 11.539-11.539s-5.1641-11.539-11.539-11.539zm-300-311.54c0-6.375 5.1641-11.539 11.539-11.539s11.539 5.1641 11.539 11.539v230.77c0 6.375-5.1641 11.539-11.539 11.539s-11.539-5.1641-11.539-11.539z"/>
  <path d="m1130.8 1073.1h-11.539v-496.16h-80.699c0 39.035 0.042969-36.586 0 496.15h-92.414c-6.375 0-11.539 5.1641-11.539 11.539s5.1641 11.539 11.539 11.539h184.65c6.375 0 11.539-5.1641 11.539-11.539 0-6.3711-5.1641-11.535-11.539-11.535zm-57.73-403.85c0-6.375 5.1641-11.539 11.539-11.539s11.539 5.1641 11.539 11.539v230.77c0 6.375-5.1641 11.539-11.539 11.539s-11.539-5.1641-11.539-11.539z"/>
  <path d="m899.96 1073.1h-126.92c-6.375 0-11.539 5.1641-11.539 11.539s5.1641 11.539 11.539 11.539h126.92c6.375 0 11.539-5.1641 11.539-11.539-0.003906-6.375-5.168-11.539-11.539-11.539z"/>
 </g>
</svg>
